<svg version="1.1" id="Layer_1" xmlns="http://www.w3.org/2000/svg" xmlns:xlink="http://www.w3.org/1999/xlink" x="0px" y="0px"
	 width="100%" viewBox="0 0 592 592" enable-background="new 0 0 592 592" xml:space="preserve">
<path fill="#000000" opacity="1.000000" stroke="none" 
	d="
M142.000122,263.996094 
	C135.833954,264.014587 130.166168,264.124084 124.501884,264.027893 
	C115.218224,263.870331 109.482780,258.517944 109.464684,250.166336 
	C109.444984,241.076248 114.661377,235.844345 124.328896,235.831940 
	C139.324051,235.812698 154.319595,236.071915 169.314804,236.230545 
	C170.303009,236.241013 171.329208,236.554825 172.128265,235.388626 
	C172.466553,233.275467 170.624710,232.317291 169.376785,231.150208 
	C154.897919,217.609390 140.288849,204.206299 125.927597,190.542496 
	C122.984856,187.742676 120.865944,187.603256 117.312592,189.468903 
	C95.753029,200.788559 70.842018,185.430344 71.751076,161.566452 
	C72.265198,148.070236 81.852402,136.388580 95.656013,133.002182 
	C99.229378,132.125534 101.039711,130.671692 101.671387,126.949364 
	C104.778862,108.637657 122.073112,97.402290 139.795288,101.987267 
	C157.063797,106.454865 167.371719,125.383339 160.327789,142.147003 
	C157.228745,149.522324 159.187729,153.074905 164.399887,157.491562 
	C171.891281,163.839630 178.845001,170.821594 186.038986,177.521454 
	C190.336838,181.524139 190.842255,181.552933 194.375854,176.600311 
	C203.570312,163.713409 214.583939,152.716324 227.786774,143.949768 
	C279.723877,109.464104 351.751709,117.119644 395.421417,161.652267 
	C401.381836,167.730438 406.690613,174.318604 411.970215,181.371414 
	C416.493500,178.955368 419.449280,175.059006 423.005890,171.958130 
	C429.407013,166.377243 435.412720,160.345093 441.741577,154.677856 
	C444.349609,152.342468 444.963257,150.325073 443.346222,146.928055 
	C433.850159,126.979492 444.848267,106.025475 466.557220,102.316765 
	C481.107910,99.830956 497.069305,110.731720 500.104004,125.848709 
	C501.125000,130.934784 502.696655,133.427490 508.185089,134.930206 
	C520.472534,138.294449 528.056519,147.025406 529.922058,159.718353 
	C531.689636,171.745285 527.416809,181.820999 517.387756,188.855438 
	C507.070892,196.091766 495.882904,196.832993 484.861115,190.736176 
	C480.791962,188.485321 478.669525,189.055878 475.522766,192.062042 
	C462.272980,204.720001 448.720886,217.061127 435.333221,229.575745 
	C433.823029,230.987427 431.735504,232.165604 431.882385,234.800949 
	C433.270264,236.550598 435.254944,235.929260 436.975983,235.935287 
	C452.139648,235.988434 467.303833,235.909134 482.467377,235.975723 
	C487.729858,235.998825 492.559448,237.388596 494.854218,242.708206 
	C497.185791,248.113113 496.886169,253.402145 493.039154,258.236206 
	C490.520447,261.401123 487.243439,262.420959 483.354889,262.408020 
	C468.189484,262.357574 453.021973,262.523560 437.859436,262.311005 
	C433.577759,262.251007 431.714020,263.465454 430.955383,267.927643 
	C425.205811,301.745178 408.220825,329.044006 382.121368,350.945557 
	C376.307587,355.824249 376.422394,356.078644 381.752075,361.018982 
	C399.223389,377.214111 416.725555,393.379272 433.959259,409.824799 
	C437.584015,413.283752 440.146271,413.723602 444.625458,411.220337 
	C457.430206,404.064209 472.919800,407.402344 482.590729,418.719849 
	C491.652802,429.324890 492.170715,445.464233 483.593384,456.659882 
	C478.877533,462.815247 472.664459,466.875092 464.930084,468.245300 
	C461.916077,468.779236 460.541718,470.079498 460.034515,473.363464 
	C457.537781,489.529633 443.873688,500.960480 428.456390,500.166718 
	C412.386414,499.339386 399.688873,486.426697 398.914062,469.841248 
	C398.669159,464.598206 400.337860,459.627838 402.688324,454.978394 
	C403.734375,452.909180 403.870270,451.243134 402.107758,449.604401 
	C396.158661,444.073059 390.219635,438.530884 384.283051,432.998749 
	C381.787231,434.701843 382.126038,437.132385 381.667297,439.093964 
	C373.947235,472.104279 349.482086,491.416290 316.305725,495.315857 
	C301.965851,497.001373 287.721771,496.845398 273.642609,493.279724 
	C244.359070,485.863403 227.392593,466.463470 219.853821,437.914825 
	C219.514648,436.630432 219.260681,435.322235 218.883362,434.049957 
	C218.751480,433.605316 218.367203,433.235535 217.929276,432.577850 
	C213.753464,433.908081 211.627258,437.785645 208.400452,440.214600 
	C207.206161,441.113586 206.183273,442.237122 205.014359,443.173523 
	C199.540634,447.558533 196.157516,451.119476 199.715927,459.876190 
	C206.353088,476.209167 196.070816,493.975739 178.852509,498.494965 
	C161.545456,503.037506 144.863876,493.063019 141.612701,476.533417 
	C140.393341,470.333984 137.431381,468.264313 131.717834,466.423096 
	C119.792709,462.580109 112.621468,453.624115 111.251060,441.088989 
	C109.962555,429.303101 114.279678,419.338440 124.193031,412.534149 
	C134.772095,405.272888 146.086365,404.860535 157.200638,411.238770 
	C160.679962,413.235474 162.810074,413.389587 165.784103,410.599701 
	C184.252304,393.275146 202.790924,376.023346 221.499283,358.959106 
	C225.223038,355.562653 224.377243,353.722321 221.051422,350.825134 
	C200.784592,333.170074 185.892517,311.809998 177.438217,286.168549 
	C175.611282,280.627563 174.332733,274.915283 173.765778,269.104309 
	C173.404312,265.399658 171.763351,263.864746 167.995407,263.935883 
	C159.499603,264.096222 150.998825,263.991547 142.000122,263.996094 
M367.499939,264.213165 
	C307.710175,264.197113 247.920395,264.178314 188.130615,264.169220 
	C182.069061,264.168274 181.357208,265.009521 182.638123,270.838043 
	C184.319016,278.486511 186.425964,286.024017 189.395569,293.276855 
	C200.928436,321.444122 219.045319,343.461029 247.371490,356.335175 
	C272.088165,367.568817 298.022186,369.230438 324.172607,365.347809 
	C377.492798,357.431244 410.198425,319.019897 421.945251,269.703125 
	C422.946869,265.497986 421.878937,264.091522 417.463470,264.142700 
	C401.144196,264.331696 384.821442,264.215790 367.499939,264.213165 
M295.557281,130.129852 
	C266.627319,131.155228 241.247406,141.107483 219.960800,160.796555 
	C208.859543,171.064651 199.252029,182.568436 193.377625,196.763550 
	C195.947693,198.304092 197.994156,197.933899 199.951523,197.936249 
	C252.270554,197.998856 304.589630,198.042328 356.908691,198.064056 
	C372.903687,198.070694 388.898865,198.038528 404.893555,197.950409 
	C409.943207,197.922577 410.569855,196.789124 408.306763,192.356033 
	C407.928680,191.615387 407.488464,190.904541 407.048279,190.197815 
	C381.566956,149.288086 345.003693,128.756912 295.557281,130.129852 
M308.323730,238.950775 
	C336.012146,236.287521 363.819122,236.141510 391.582092,235.089935 
	C400.400085,234.755951 409.236572,234.809128 418.063568,234.861694 
	C421.921570,234.884689 422.951904,233.133133 422.544617,229.573608 
	C421.798584,223.053268 419.204529,217.044235 417.664337,210.751068 
	C416.493866,205.968750 413.818878,204.122574 408.746796,204.176468 
	C388.927521,204.387177 369.104095,204.170746 349.282196,204.178528 
	C297.645386,204.198792 246.008499,204.295670 194.371872,204.214493 
	C190.261200,204.208023 187.866684,205.501846 186.390884,209.331223 
	C183.751068,216.181000 181.411743,223.071243 180.451614,230.399094 
	C179.939926,234.304489 181.276535,236.329620 185.282669,235.722641 
	C194.772308,234.284882 204.232498,235.890198 213.708786,235.821503 
	C235.360840,235.664551 257.018494,236.085861 278.667572,235.797913 
	C288.442139,235.667892 297.674500,239.322784 308.323730,238.950775 
M350.826813,475.356049 
	C369.516937,460.919281 375.672150,441.132996 376.024567,417.645172 
	C325.046387,444.523407 275.471191,445.899323 226.239105,414.784515 
	C224.801254,421.533539 226.324020,427.382172 227.352173,433.154510 
	C231.982803,459.151886 246.180374,477.146759 271.815826,485.238953 
	C283.416504,488.900879 295.401306,489.159424 307.430756,488.845337 
	C322.913940,488.441040 337.426392,484.903168 350.826813,475.356049 
M413.146912,453.749420 
	C412.273834,454.967285 411.318115,456.134827 410.541046,457.411163 
	C405.258667,466.087524 406.142914,477.058319 412.672852,484.368835 
	C419.423126,491.926147 430.402466,494.063232 439.650879,489.620056 
	C448.721527,485.262268 453.907379,475.763794 452.073578,465.722107 
	C451.134460,460.579437 453.189240,460.311768 457.395111,460.604218 
	C468.661072,461.387543 477.528564,455.040527 480.858856,444.343719 
	C483.826111,434.812958 479.709381,424.217682 470.936554,418.806458 
	C461.989838,413.287933 450.367493,414.445160 442.950531,422.205200 
	C439.849609,425.449554 438.120453,424.758453 435.328308,422.085846 
	C422.691162,409.989899 409.964355,397.984283 397.100128,386.130310 
	C389.821228,379.423004 383.016571,372.161957 374.892334,365.930603 
	C374.802643,366.756348 374.659271,367.104431 374.750793,367.372314 
	C380.500275,384.196167 383.432892,401.521027 384.000366,419.266205 
	C384.084473,421.896118 385.870026,423.427673 387.571960,425.028198 
	C395.704498,432.675964 403.862518,440.296906 411.953918,447.987915 
	C413.390686,449.353546 415.937805,450.578583 413.146912,453.749420 
M197.822006,439.321686 
	C203.182709,434.333008 208.462662,429.253326 213.938568,424.394470 
	C216.631958,422.004578 217.864761,419.408081 217.727402,415.716278 
	C217.436264,407.891174 218.556870,400.132538 219.471909,392.368073 
	C220.476593,383.842987 223.137756,375.702087 225.741699,366.309479 
	C223.086685,368.446747 221.335876,369.692749 219.771576,371.140289 
	C201.449081,388.095093 183.117081,405.040100 164.897217,422.104736 
	C162.443619,424.402771 160.821136,424.794312 158.371628,422.135986 
	C153.749481,417.119690 147.709122,414.431549 140.990067,414.656097 
	C128.465561,415.074677 118.812584,425.678223 119.073723,438.005493 
	C119.344437,450.784790 128.870499,459.880280 141.992767,459.888580 
	C148.990158,459.893005 148.990158,459.893005 148.300980,466.556488 
	C147.295471,476.278625 152.433060,485.469696 161.078186,489.414795 
	C169.989029,493.481171 180.826569,491.484406 187.315414,484.580597 
	C194.016998,477.450439 195.274323,466.873657 190.968536,458.130249 
	C189.586243,455.323334 184.960739,453.534210 186.946671,449.809814 
	C188.439514,447.010101 191.499420,445.035522 193.902908,442.736694 
	C194.983948,441.702667 196.165649,440.773895 197.822006,439.321686 
M108.903664,140.280945 
	C107.446686,141.055588 105.963913,140.463684 104.490448,140.364197 
	C93.847618,139.645615 84.710709,145.634232 81.224144,155.613739 
	C77.866257,165.224945 81.472969,176.129517 89.841393,181.667236 
	C98.771828,187.576859 109.666733,187.118668 117.496323,179.746307 
	C121.027466,176.421326 123.019089,177.112671 126.088028,180.047272 
	C140.418701,193.750610 154.920303,207.275360 169.391174,220.831528 
	C170.421127,221.796387 171.236877,223.264343 173.433716,223.058121 
	C176.249557,212.747742 179.298111,202.370758 184.594177,192.893814 
	C186.285904,189.866547 185.867233,187.965622 183.307495,185.627289 
	C171.990601,175.289124 160.963043,164.633347 149.605988,154.340561 
	C146.346985,151.386963 146.270523,149.360641 149.203659,146.177734 
	C152.266113,142.854523 154.374252,138.733566 154.653610,134.081696 
	C155.206635,124.872940 151.999512,117.254341 143.895523,112.477600 
	C135.974731,107.808823 127.603424,107.478294 119.749603,112.579094 
	C111.793877,117.746086 108.471222,125.436089 109.393768,134.904602 
	C109.551254,136.520905 110.515533,138.111954 108.903664,140.280945 
M509.547729,143.797531 
	C504.235504,141.141006 498.435059,141.114395 492.437683,141.566177 
	C492.639832,138.516312 492.837982,136.375031 492.914459,134.229416 
	C493.306641,123.225609 487.530609,114.453377 477.921387,111.402962 
	C467.852081,108.206467 457.301819,111.535797 451.710022,119.674438 
	C445.708344,128.409576 446.227905,139.624481 453.458740,147.796249 
	C455.930542,150.589722 455.912506,152.246704 453.194183,154.705490 
	C442.201569,164.648621 431.431763,174.838608 420.408508,184.747040 
	C417.639496,187.235992 416.597382,189.190109 418.766144,192.751053 
	C423.644409,200.760910 426.957153,209.483749 429.205688,218.598160 
	C429.550903,219.997437 429.468445,221.669006 431.614014,222.259506 
	C432.517273,221.517654 433.576050,220.737656 434.533356,219.848389 
	C448.569366,206.810410 462.620300,193.788177 476.589844,180.679230 
	C478.952454,178.462158 480.816620,177.253189 483.639160,180.174377 
	C490.365143,187.135422 498.656128,188.762741 507.496307,185.399216 
	C515.695862,182.279434 520.877319,176.088959 521.820862,167.120804 
	C522.877625,157.076508 519.303406,149.164734 509.547729,143.797531 
M167.938126,242.488968 
	C153.789993,243.437378 139.618469,242.797012 125.461967,243.129074 
	C121.285896,243.227005 118.279442,246.142685 118.440056,249.964767 
	C118.621742,254.288544 121.264183,255.960754 125.417992,256.011780 
	C136.576950,256.148865 147.733902,256.568787 158.892426,256.599518 
	C195.721756,256.700989 232.551392,256.706024 269.380920,256.700714 
	C339.373566,256.690613 409.366180,256.651947 479.358826,256.611267 
	C485.604340,256.607635 488.834717,254.094803 488.732819,249.463760 
	C488.634796,245.007355 485.700653,243.025391 479.436340,242.987900 
	C436.793213,242.732727 394.149811,242.504562 351.507538,242.144592 
	C338.859772,242.037842 326.181793,242.703690 313.575378,240.942307 
	C309.474854,240.369354 305.351624,239.371155 301.175049,240.471252 
	C294.986176,242.101318 288.663483,242.228561 282.319550,242.237747 
	C244.503357,242.292450 206.687180,242.370377 167.938126,242.488968 
M297.850311,416.554932 
	C297.851501,415.724548 297.761566,414.882202 297.868866,414.065735 
	C298.498077,409.276489 297.097443,406.690430 291.601196,406.611237 
	C284.813507,406.513458 278.043610,405.597870 271.413208,403.907288 
	C269.375671,403.387756 267.310486,402.501495 264.888092,403.372711 
	C263.404938,408.393524 263.001251,413.669189 262.273590,418.890503 
	C261.796082,422.316742 263.285522,424.017151 266.531006,424.998810 
	C274.514465,427.413513 282.678131,428.818665 290.936768,429.642303 
	C297.576080,430.304443 297.855774,429.886322 297.873810,423.007263 
	C297.878571,421.180420 297.859985,419.353546 297.850311,416.554932 
M305.238892,422.367035 
	C305.914032,425.137177 303.223969,429.907257 308.994141,429.733093 
	C317.637177,429.472229 326.167847,428.130402 334.522736,425.803925 
	C336.813843,425.165924 337.815308,423.780731 337.458496,421.383179 
	C336.749756,416.621643 336.059631,411.856750 335.426117,407.084717 
	C334.991425,403.810181 333.282196,403.098907 330.196991,403.844208 
	C324.055481,405.327820 317.804626,406.254333 311.468994,406.357239 
	C306.733337,406.434174 304.498810,408.435791 305.181244,413.439850 
	C305.537262,416.050415 305.245514,418.749298 305.238892,422.367035 
M289.879700,375.718628 
	C284.447296,374.971863 278.991638,374.359436 273.591766,373.424683 
	C270.647888,372.915100 269.152496,373.866882 268.682281,376.733124 
	C267.929291,381.323120 267.165955,385.911652 266.367340,390.493866 
	C265.848145,393.473083 266.923950,395.123535 269.976959,395.878510 
	C277.748047,397.800262 285.659851,398.741455 293.580811,399.671844 
	C296.471527,400.011383 297.974548,398.920959 297.888428,395.808319 
	C297.778046,391.818573 297.854614,387.823578 297.852936,383.830841 
	C297.849854,376.539337 297.850555,376.539337 289.879700,375.718628 
M338.661957,379.131287 
	C339.846649,383.839203 339.380127,388.981873 342.118347,393.366943 
	C347.739349,392.670410 352.604034,390.413910 357.335541,388.166290 
	C372.397034,381.011780 372.134216,385.485779 365.369354,367.058380 
	C365.256073,366.749786 365.040802,366.479675 364.914948,366.174408 
	C363.835052,363.554504 362.225250,362.838623 359.419464,363.966858 
	C354.507385,365.942169 349.499054,367.714264 344.441589,369.282990 
	C337.535309,371.425140 337.499390,371.309326 338.661957,379.131287 
M311.295471,399.637665 
	C317.518951,398.712799 323.735138,397.733917 329.969452,396.889069 
	C332.544891,396.540070 333.922699,395.580658 333.409668,392.693726 
	C332.481689,387.471741 331.634552,382.232574 330.901581,376.979950 
	C330.518494,374.234528 329.321960,373.444916 326.533417,373.889893 
	C320.646729,374.829315 314.713501,375.532990 308.775635,376.072083 
	C305.900452,376.333099 305.187134,377.787262 305.227203,380.314423 
	C305.303558,385.122681 305.457123,389.944214 305.192444,394.738892 
	C304.970428,398.759979 306.600922,400.236938 311.295471,399.637665 
M374.801605,402.580933 
	C374.277924,399.475586 373.794373,396.362762 373.217834,393.267273 
	C372.758026,390.798462 371.495209,389.821320 368.985504,391.071564 
	C361.539734,394.780640 353.663849,397.392639 345.801025,400.029968 
	C344.184540,400.572174 342.424072,401.070740 342.751282,403.271515 
	C343.642700,409.267578 343.878510,415.395905 345.886597,421.753448 
	C356.128387,418.763367 364.901276,413.884338 373.389435,408.421082 
	C375.212524,407.247681 374.854584,405.236755 374.801605,402.580933 
M252.176239,367.416168 
	C250.916077,366.988678 249.635788,366.612366 248.398911,366.125671 
	C236.345139,361.382996 236.201050,361.555756 232.138916,374.415924 
	C231.056076,377.844055 231.931061,379.776947 234.864548,381.301880 
	C239.145432,383.527130 243.315506,385.982849 247.679092,388.028351 
	C258.353394,393.032013 258.593872,392.992828 260.433990,381.382263 
	C262.427155,368.806152 263.476593,371.635712 252.176239,367.416168 
M228.347488,390.341858 
	C227.885742,394.296967 227.460510,398.256866 226.944321,402.204865 
	C226.737259,403.788605 226.808517,405.178558 228.261963,406.180939 
	C236.039001,411.544312 244.216736,416.137024 253.664886,419.883606 
	C255.516434,413.659912 256.026031,407.753845 256.699127,401.904358 
	C256.928772,399.908813 255.119156,399.126709 253.534012,398.549438 
	C246.331528,395.926605 239.454041,392.629303 232.867584,388.717621 
	C231.132095,387.686890 229.491196,386.996796 228.347488,390.341858 
z"/>
<path fill="#000000" opacity="1.000000" stroke="none" 
	d="
M239.267548,333.948303 
	C227.178726,326.770538 220.159378,316.309113 220.048187,302.801453 
	C219.846008,278.241425 243.038757,264.359344 263.473083,271.886230 
	C278.517853,277.427917 287.796600,290.703613 287.516418,304.708557 
	C287.109955,325.026459 262.641663,345.912231 239.267548,333.948303 
z"/>
<path fill="#000000" opacity="1.000000" stroke="none" 
	d="
M317.271332,298.661133 
	C320.161377,283.604706 328.989624,274.138489 343.319946,271.228149 
	C357.825684,268.282257 370.324127,272.825409 379.038025,285.476868 
	C386.019897,295.613586 385.679657,311.495605 378.022614,322.720703 
	C370.389343,333.910950 359.827911,338.892639 346.222565,336.488464 
	C326.219818,332.953796 315.320496,318.885864 317.271332,298.661133 
z"/>
<path fill="#000000" opacity="1.000000" stroke="none" 
	d="
M311.116028,337.781738 
	C317.421783,344.225220 316.149200,350.754333 308.247803,354.125671 
	C303.679199,356.074921 299.155487,355.873718 294.757355,353.563507 
	C291.426544,351.813995 289.243103,349.184052 289.274109,345.280853 
	C289.306396,341.213501 291.462189,338.359192 295.075012,336.667450 
	C300.450562,334.150330 305.720917,334.455780 311.116028,337.781738 
z"/>
<path fill="#000000" opacity="1.000000" stroke="none" 
	d="
M229.209549,182.204941 
	C227.593369,184.541275 226.298782,186.673065 224.762924,188.613953 
	C223.518616,190.186417 221.802017,190.815399 219.944443,189.541641 
	C218.170044,188.324890 217.789154,186.645691 218.865005,184.772995 
	C223.524887,176.661667 229.445694,169.546616 236.266510,163.186920 
	C238.006500,161.564545 240.186905,161.099503 241.956421,163.214127 
	C243.543915,165.111237 242.770966,166.926025 241.195831,168.488251 
	C236.959045,172.690353 232.667053,176.842880 229.209549,182.204941 
z"/>
<path fill="#000000" opacity="1.000000" stroke="none" 
	d="
M378.144287,187.852005 
	C375.883759,182.359070 372.760529,177.872849 369.038300,173.779861 
	C367.270752,171.836258 365.557861,169.662537 367.887817,167.272171 
	C370.425415,164.668762 372.478851,166.910522 374.179016,168.704224 
	C379.878906,174.717865 383.841156,181.767914 386.377838,189.651871 
	C387.189392,192.174149 387.127197,194.509445 384.439453,195.537766 
	C381.373932,196.710617 380.433533,194.260834 379.641785,191.956665 
	C379.209290,190.698105 378.747955,189.449448 378.144287,187.852005 
z"/>
<path fill="#000000" opacity="1.000000" stroke="none" 
	d="
M254.957687,171.387863 
	C256.671783,173.572998 256.189545,175.281830 254.793640,177.040802 
	C251.386551,181.334000 248.444595,185.920883 246.198318,190.946091 
	C245.205765,193.166565 243.739365,195.372955 240.948868,194.139008 
	C237.970169,192.821823 238.435715,190.209045 239.664612,187.773132 
	C242.279465,182.590103 245.308273,177.654648 248.773117,172.995453 
	C250.276794,170.973434 252.077164,169.689682 254.957687,171.387863 
z"/>
<path fill="#000000" opacity="1.000000" stroke="none" 
	d="
M348.368439,176.602097 
	C351.139221,173.739639 353.201538,174.986008 354.623932,177.408966 
	C356.815002,181.141266 358.220184,185.234955 358.951904,189.517441 
	C359.291107,191.502640 358.707886,193.204544 356.653107,193.923752 
	C355.010223,194.498810 353.249237,193.738708 352.903809,192.329819 
	C351.620941,187.097000 347.853546,182.635269 348.368439,176.602097 
z"/>
<path fill="#000000" opacity="1.000000" stroke="none" 
	d="
M264.652588,178.441360 
	C266.657013,176.789062 268.476227,176.176010 270.242249,178.008545 
	C271.834900,179.661194 271.079285,181.406128 270.101013,183.036362 
	C268.904266,185.030716 267.712921,187.035522 266.381897,188.939819 
	C265.338928,190.431992 263.817413,191.221603 262.054749,190.271729 
	C260.205048,189.274918 259.485687,187.540695 260.424408,185.618683 
	C261.586212,183.239975 263.050232,181.008865 264.652588,178.441360 
z"/>
</svg>